<?xml version="1.0" standalone="no"?>
<!DOCTYPE svg PUBLIC "-//W3C//DTD SVG 1.1//EN" "http://www.w3.org/Graphics/SVG/1.1/DTD/svg11.dtd" >
<!--
2013-9-30: Created.
-->
<svg>
<metadata>
Created by iconfont
</metadata>
<defs>

<font id="iconfont" horiz-adv-x="1024" >
  <font-face
    font-family="iconfont"
    font-weight="500"
    font-stretch="normal"
    units-per-em="1024"
    ascent="896"
    descent="-128"
  />
    <missing-glyph />
    
    <glyph glyph-name="x" unicode="x" horiz-adv-x="1001"
d="M281 543q-27 -1 -53 -1h-83q-18 0 -36.5 -6t-32.5 -18.5t-23 -32t-9 -45.5v-76h912v41q0 16 -0.5 30t-0.5 18q0 13 -5 29t-17 29.5t-31.5 22.5t-49.5 9h-133v-97h-438v97zM955 310v-52q0 -23 0.5 -52t0.5 -58t-10.5 -47.5t-26 -30t-33 -16t-31.5 -4.5q-14 -1 -29.5 -0.5
t-29.5 0.5h-32l-45 128h-439l-44 -128h-29h-34q-20 0 -45 1q-25 0 -41 9.5t-25.5 23t-13.5 29.5t-4 30v167h911zM163 247q-12 0 -21 -8.5t-9 -21.5t9 -21.5t21 -8.5q13 0 22 8.5t9 21.5t-9 21.5t-22 8.5zM316 123q-8 -26 -14 -48q-5 -19 -10.5 -37t-7.5 -25t-3 -15t1 -14.5
t9.5 -10.5t21.5 -4h37h67h81h80h64h36q23 0 34 12t2 38q-5 13 -9.5 30.5t-9.5 34.5q-5 19 -11 39h-368zM336 498v228q0 11 2.5 23t10 21.5t20.5 15.5t34 6h188q31 0 51.5 -14.5t20.5 -52.5v-227h-327z" />
    

    
    <glyph glyph-name="header" unicode="&#58880;" d="M882.083 23.814666666666653q-20.718 0-62.387 1.648t-62.858 1.648q-20.718 0-62.151-1.648t-62.151-1.648q-11.3 0-17.422 9.652t-6.122 21.424q0 14.596 8.004 21.659t18.363 8.004 24.013 3.296 21.188 7.062q15.537 9.888 15.537 65.918l-0.471 184.1q0 9.888-0.471 14.596-6.122 1.883-23.542 1.883h-317.819q-17.892 0-24.013-1.883-0.471-4.708-0.471-14.596l-0.471-174.683q0-66.861 17.422-77.218 7.534-4.708 22.601-6.122t26.838-1.648 21.188-7.062 9.417-21.424q0-12.242-5.886-22.601t-17.185-10.358q-22.129 0-65.682 1.648t-65.213 1.648q-20.245 0-60.268-1.648t-59.797-1.648q-10.83 0-16.715 9.888t-5.886 21.188q0 14.125 7.298 21.188t16.95 8.24 22.366 3.532 19.776 7.062q15.537 10.83 15.537 67.33l-0.471 26.838v382.794q0 1.413 2.354 12.242t0 17.185-0.706 18.127-1.648 19.776-3.06 17.185-5.18 14.831-7.534 8.475q-7.062 4.708-21.188 5.649t-24.954 0.942-19.305 6.592-8.475 21.188q0 12.242 5.649 22.601t16.95 10.358q21.659 0 65.212-1.648t65.213-1.648q19.776 0 59.561 1.648t59.562 1.648q11.771 0 17.657-10.358t5.886-22.601q0-14.125-8.004-20.482t-18.127-6.827-23.307-1.883-20.245-6.122q-16.479-9.888-16.479-75.337l0.471-150.669q0-9.888 0.471-15.067 6.122-1.413 18.363-1.413h329.12q11.771 0 17.892 1.413 0.471 5.18 0.471 15.067l0.471 150.669q0 65.447-16.479 75.337-8.475 5.18-27.545 5.886t-31.075 6.122-12.006 23.307q0 12.242 5.886 22.601t17.657 10.358q20.718 0 62.151-1.648t62.153-1.648q20.245 0 60.739 1.648t60.739 1.648q11.771 0 17.657-10.358t5.886-22.601q0-14.125-8.24-20.718t-18.833-6.827-24.249-1.413-20.718-5.886q-16.479-10.83-16.479-75.805l0.471-444.004q0-56.031 16.01-65.918 7.534-4.708 21.659-6.356t25.19-2.118 19.54-7.297 8.475-20.953q0-12.241-5.649-22.601t-16.95-10.357z"  horiz-adv-x="1024" />

    
    <glyph glyph-name="font" unicode="&#58906;" d="M125.28 62.976666666666574c43.797 13.512 91.322 4.193 110.891 54.513l110.425 287.012 130.46 337.331 59.638 0c1.863-3.262 3.728-6.523 5.125-9.785l95.515-223.645c34.945-82.469 67.094-165.87 102.505-247.873 20.966-48.456 37.273-98.311 60.57-145.835 3.262-7.455 9.784-21.433 16.307-26.558 15.376-12.114 58.241-14.91 80.14-23.297 1.398-8.853 2.796-17.705 2.796-26.558 0-4.193-0.466-7.921-0.466-12.114-59.173 0-118.346 7.455-177.519 7.455-61.036 0-122.072-5.125-183.109-6.989 0 12.114 0.466 24.229 1.864 36.343l61.036 13.046c12.58 2.795 37.274 6.057 37.274 23.296 0 16.773-60.104 155.154-67.56 174.257l-209.667 0.932c-12.114-27.023-59.172-149.097-59.172-166.802 0-35.876 68.491-37.274 95.049-41.001 0.466-8.854 0.466-17.706 0.466-27.024 0-4.193-0.466-8.387-0.932-12.58-54.047 0-108.561 9.318-162.608 9.318-6.523 0-15.842-2.795-22.365-3.727-29.354-5.126-58.241-6.523-87.594-6.523l0.931 36.808zM382.938 331.3506666666666c46.127-0.466 92.254-1.864 138.38-1.864 8.853 0 17.705 0.466 26.559 0.932-24.229 70.821-52.65 143.04-85.731 210.6l-79.208-209.668z"  horiz-adv-x="1024" />

    
    <glyph glyph-name="centerjustified" unicode="&#58881;" d="M128 672C128 689.664 142.336 704 160 704l704 0C881.664 704 896 689.664 896 672l0 0C896 654.336 881.664 640 864 640l-704 0C142.336 640 128 654.336 128 672L128 672zM256 480C256 462.336 270.336 448 288 448l448 0C753.664 448 768 462.336 768 480l0 0C768 497.664 753.664 512 736 512l-448 0C270.336 512 256 497.664 256 480L256 480zM128 288C128 270.336 142.336 256 160 256l704 0c17.664 0 32 14.336 32 32l0 0C896 305.664 881.664 320 864 320l-704 0C142.336 320 128 305.664 128 288L128 288zM256 96C256 78.336 270.336 64 288 64l448 0c17.664 0 32 14.336 32 32l0 0c0 17.664-14.336 32-32 32l-448 0C270.336 128 256 113.664 256 96L256 96z"  horiz-adv-x="1024" />

    
    <glyph glyph-name="defaultjustified" unicode="&#58882;" d="M128 672C128 689.664 142.336 704 160 704l704 0C881.664 704 896 689.664 896 672l0 0C896 654.336 881.664 640 864 640l-704 0C142.336 640 128 654.336 128 672L128 672zM128 480C128 462.336 142.336 448 160 448l704 0C881.664 448 896 462.336 896 480l0 0C896 497.664 881.664 512 864 512l-704 0C142.336 512 128 497.664 128 480L128 480zM128 288C128 270.336 142.336 256 160 256l704 0c17.664 0 32 14.336 32 32l0 0C896 305.664 881.664 320 864 320l-704 0C142.336 320 128 305.664 128 288L128 288zM128 96C128 78.336 142.336 64 160 64l704 0c17.664 0 32 14.336 32 32l0 0c0 17.664-14.336 32-32 32l-704 0C142.336 128 128 113.664 128 96L128 96z"  horiz-adv-x="1024" />

    
    <glyph glyph-name="fontbold" unicode="&#58883;" d="M256 42.66666666666663L256 746.6666666666666l303.488 0c156.288 0 208-92.8 209.024-167.488 0.896-62.912-15.296-151.68-109.632-174.016C772.48 382.50666666666666 796.096 316.26666666666665 796.096 234.66666666666663c0-79.424-43.264-192-196.224-192L256 42.66666666666663zM381.376 428.13866666666667l140.032 0c56.32 0 128.832 46.4 128.832 129.728 0 110.016-77.312 132.224-137.024 132.224l-131.84 0L381.376 428.13866666666667zM381.376 99.17866666666657l135.488 0c73.984 0 139.136 51.328 139.136 136 0 97.024-66.304 136.512-142.656 136.512L381.376 371.69066666666663 381.376 99.17866666666657z"  horiz-adv-x="1024" />

    
    <glyph glyph-name="fontcolormergea" unicode="&#58884;" d="M797.504 240.64 752.64 240.64 540.672 757.952c0 0-6.272 8.576-18.944 9.92C508.992 769.216 489.216 761.28 489.216 761.28L262.912 240.64 253.632 240.64c-19.072 0-24.896-8.256-24.896-25.856 0-17.408 10.24-22.656 29.248-22.656l131.968 0c19.008 0 34.496 5.12 34.496 22.656 0 17.536-15.424 25.856-34.496 25.856L355.968 240.64l47.616 112.128 245.632 0L697.6 240.64l-54.656 0c-19.072 0-34.496-8.256-34.496-25.856 0-17.408 15.488-22.656 34.56-22.656l154.432 0C816.576 192 832 197.12 832 214.72 832 232.32 816.576 240.64 797.504 240.64zM425.664 401.28l104.64 235.072L629.696 401.28 425.664 401.28z"  horiz-adv-x="1024" />

    
    <glyph glyph-name="fontcolormerge" unicode="&#58885;" d="M797.504 261.97333333333336L752.64 261.97333333333336 540.672 779.2853333333334c0 0-6.272 8.576-18.944 9.92C508.992 790.5493333333334 489.216 782.6133333333333 489.216 782.6133333333333L262.912 261.97333333333336 253.632 261.97333333333336c-19.072 0-24.896-8.256-24.896-25.856 0-17.472 10.24-22.656 29.248-22.656l131.968 0c19.008 0 34.496 5.12 34.496 22.656S409.024 261.97333333333336 389.952 261.97333333333336L355.968 261.97333333333336l47.616 112.128 245.632 0L697.6 261.97333333333336l-54.656 0c-19.072 0-34.496-8.256-34.496-25.856 0-17.472 15.488-22.656 34.56-22.656l154.432 0C816.576 213.33333333333337 832 218.45333333333338 832 236.0533333333334 832 253.65333333333342 816.576 261.97333333333336 797.504 261.97333333333336zM425.664 422.6133333333333l104.64 235.072L629.696 422.6133333333333 425.664 422.6133333333333zM928-10.666666666666629l-768 0 0 128 768 0L928-10.666666666666629z"  horiz-adv-x="1024" />

    
    <glyph glyph-name="fontitalics" unicode="&#58886;" d="M768 746.6666666666666l0-64-128 0-192-576 128 0 0-64L192 42.66666666666663l0 64 128 0 192 576L384 682.6666666666666 384 746.6666666666666 768 746.6666666666666z"  horiz-adv-x="1024" />

    
    <glyph glyph-name="fontsize" unicode="&#58887;" d="M954.368 80.42666666666662l-34.816 0L754.56 482.8586666666667c0 0-4.736 6.656-14.656 7.744-9.92 1.024-25.28-5.184-25.28-5.184l-176-404.992L531.328 80.42666666666662C516.544 80.42666666666662 512 74.02666666666664 512 60.26666666666665 512 46.63466666666659 519.936 42.66666666666663 534.72 42.66666666666663l102.72 0c14.656 0 26.816 4.096 26.816 17.6 0 13.76-12.096 20.096-26.816 20.096L610.944 80.36266666666666l37.056 87.296 191.104 0 37.632-87.296-42.432 0c-14.784 0-26.88-6.4-26.88-20.096 0-13.696 12.032-17.6 26.88-17.6l120.064 0c14.848 0 26.816 3.968 26.816 17.6C981.184 74.02666666666664 969.28 80.42666666666662 954.368 80.42666666666662zM665.216 205.41866666666658L746.56 388.2666666666667l77.312-182.848L665.216 205.41866666666658zM261.056 102.05866666666668l-41.6 0 58.112 137.088 252.928 0 60.928 138.368L445.248 734.3786666666666c0 0-7.616 10.496-23.104 12.096C406.592 748.0746666666666 382.336 738.4106666666667 382.336 738.4106666666667l-276.544-636.352L94.464 102.05866666666668C71.104 102.05866666666668 64 92.01066666666668 64 70.44266666666658 64 48.93866666666668 76.544 42.66666666666663 99.776 42.66666666666663l161.344 0c23.296 0 42.176 6.4 42.176 27.776C303.232 92.01066666666668 284.352 102.05866666666668 261.056 102.05866666666668zM432.576 585.7706666666667l121.408-287.36L304.64 298.41066666666666 432.576 585.7706666666667z"  horiz-adv-x="1024" />

    
    <glyph glyph-name="fontstrikethrough" unicode="&#58888;" d="M928 426.6666666666667l-143.616 0c-3.456 55.616-14.272 106.56-29.504 144.96C725.504 645.4826666666667 617.344 746.6666666666666 464.32 746.6666666666666L256 746.6666666666666l0-320L96 426.6666666666667C78.336 426.6666666666667 64 412.3306666666667 64 394.6666666666667S78.336 362.66666666666663 96 362.66666666666663L256 362.66666666666663l0-320 229.632 0c156.288 0 240.768 97.856 267.904 167.488C772.736 259.62666666666667 782.272 311.97866666666664 784.96 362.66666666666663L928 362.66666666666663C945.664 362.66666666666663 960 377.00266666666664 960 394.6666666666667S945.664 426.6666666666667 928 426.6666666666667zM349.376 690.1546666666667l63.936 0c35.712 0 251.84 27.968 266.944-263.488l-330.88 0L349.376 690.1546666666667zM439.296 99.17866666666657L349.376 99.17866666666657 349.376 361.19466666666665 349.376 362.66666666666663l330.88 0C665.344 92.65066666666667 467.968 99.17866666666657 439.296 99.17866666666657z"  horiz-adv-x="1024" />

    
    <glyph glyph-name="fontunderline" unicode="&#58889;" d="M448 768l0-64.64c-12.992 0.448-38.464 2.816-48.704-6.4S384 677.184 384 644.224l0-294.4C384 302.848 388.096 266.24 400.96 240c23.936-47.872 83.52-71.744 150.336-71.744 73.28 0 125.184 49.152 137.984 79.872 11.904 28.352 17.792 63.36 17.792 120.512L707.072 599.68c0 48.704 1.92 84.16-7.936 93.632C686.848 705.088 675.008 704 642.176 704L642.176 768l188.224 0 0-66.048c-11.456-1.152-44.608 6.912-55.296-6.016-10.624-12.992-9.536-49.344-9.536-96.256l0-231.04c0-61.888-12.288-97.344-29.12-133.248-22.016-46.976-94.592-108.096-192.576-107.392-125.888 1.024-209.344 41.088-244.352 104.064C280.576 265.856 271.104 300.992 271.104 356.352L271.104 640.576c0 32.64-5.056 47.232-15.104 56.384s-51.968 6.848-64 6.4L192 768 448 768zM832 32c0 17.664-14.336 32-32 32l-576 0C206.336 64 192 49.664 192 32l0 0C192 14.336 206.336 0 224 0l576 0C817.664 0 832 14.336 832 32L832 32z"  horiz-adv-x="1024" />

    
    <glyph glyph-name="leftjustified" unicode="&#58890;" d="M128 672C128 654.336 142.336 640 160 640l704 0C881.664 640 896 654.336 896 672l0 0C896 689.664 881.664 704 864 704l-704 0C142.336 704 128 689.664 128 672L128 672zM128 480C128 497.664 142.336 512 160 512l512 0C689.664 512 704 497.664 704 480l0 0C704 462.336 689.664 448 672 448l-512 0C142.336 448 128 462.336 128 480L128 480zM128 288C128 305.664 142.336 320 160 320l704 0C881.664 320 896 305.664 896 288l0 0c0-17.664-14.336-32-32-32l-704 0C142.336 256 128 270.336 128 288L128 288zM128 96C128 113.664 142.336 128 160 128l512 0c17.664 0 32-14.336 32-32l0 0c0-17.664-14.336-32-32-32l-512 0C142.336 64 128 78.336 128 96L128 96z"  horiz-adv-x="1024" />

    
    <glyph glyph-name="link" unicode="&#58891;" d="M320.128 21.33333333333337c-49.152 0-98.304 18.752-135.744 56.128-74.816 74.88-74.816 196.608 0 271.488l87.744 87.808c5.952 5.248 105.984 89.728 211.136 30.528 15.36-8.704 20.8-28.224 12.096-43.648C486.656 408.27733333333333 467.072 402.83733333333333 451.776 411.4773333333333 386.304 448.5333333333333 318.4 392.2133333333333 315.52 389.7813333333333L229.632 303.7013333333334c-49.92-49.856-49.92-131.136 0-180.992 49.856-49.856 131.136-49.856 180.992 0l87.744 87.744c12.48 12.48 32.768 12.48 45.248 0s12.48-32.768 0-45.248l-87.744-87.744C418.432 40.085333333333324 369.28 21.33333333333337 320.128 21.33333333333337zM752.128 328.5973333333334l87.744 87.744c74.88 74.88 74.88 196.672 0 271.488-74.88 74.88-196.608 74.88-271.488 0L480.64 600.0213333333334c-12.48-12.48-12.48-32.768 0-45.248s32.768-12.48 45.248 0l87.744 87.744c49.856 49.856 131.136 49.856 180.992 0 49.856-49.92 49.856-131.136 0-180.992l-85.888-86.08c-2.88-2.432-70.72-58.752-136.256-21.632C557.12 362.51733333333334 537.6 357.0773333333334 528.896 341.7173333333334c-8.704-15.36-3.264-35.008 12.096-43.648 27.072-15.232 53.76-20.992 78.656-20.992C691.392 277.0773333333334 747.776 324.6933333333334 752.128 328.5973333333334z"  horiz-adv-x="1024" />

    
    <glyph glyph-name="listalt" unicode="&#58892;" d="M896 649.3226666666667c0-17.664-14.336-28.8-32-28.8l-576 0c-17.664 0-32 11.136-32 28.8l0 0c0 17.664 14.336 32 32 32l576 0C881.664 681.3226666666667 896 667.0506666666668 896 649.3226666666667L896 649.3226666666667zM896 393.32266666666663c0 17.664-14.336 32-32 32l-576 0c-17.664 0-32-14.336-32-32l0 0c0-17.664 14.336-28.8 32-28.8l576 0C881.664 364.52266666666674 896 375.6586666666667 896 393.32266666666663L896 393.32266666666663zM896 137.3226666666667c0 17.664-14.336 32-32 32l-576 0c-17.664 0-32-14.336-32-32l0 0c0-17.664 14.336-28.8 32-28.8l576 0C881.664 108.52266666666674 896 119.6586666666667 896 137.3226666666667L896 137.3226666666667zM192.576 652.0106666666667c0 17.664-14.336 32-32 32l0 0c-17.664 0-32-14.336-32-32l0 0c0-17.664 14.336-32 32-32l0 0C178.24 620.0106666666666 192.576 634.2826666666666 192.576 652.0106666666667L192.576 652.0106666666667zM192.576 396.01066666666674c0 17.664-14.336 32-32 32l0 0c-17.664 0-32-14.336-32-32l0 0c0-17.664 14.336-32 32-32l0 0C178.24 364.0106666666668 192.576 378.2826666666667 192.576 396.01066666666674L192.576 396.01066666666674zM192.576 140.0106666666668c0 17.664-14.336 32-32 32l0 0c-17.664 0-32-14.336-32-32l0 0c0-17.664 14.336-32 32-32l0 0C178.24 108.0106666666668 192.576 122.28266666666673 192.576 140.0106666666668L192.576 140.0106666666668z"  horiz-adv-x="1024" />

    
    <glyph glyph-name="listol" unicode="&#58893;" d="M917.3333333333334 627.9893333333333c0-17.664-14.336-28.8-32-28.8l-576 0c-17.664 0-32 11.136-32 28.8l0 0c0 17.664 14.336 32 32 32l576 0C902.9973333333334 659.9893333333333 917.3333333333334 645.7173333333334 917.3333333333334 627.9893333333333L917.3333333333334 627.9893333333333zM917.3333333333334 371.9893333333333c0 17.664-14.336 32-32 32l-576 0c-17.664 0-32-14.336-32-32l0 0c0-17.664 14.336-28.8 32-28.8l576 0C902.9973333333334 343.18933333333337 917.3333333333334 354.32533333333333 917.3333333333334 371.9893333333333L917.3333333333334 371.9893333333333zM917.3333333333334 115.98933333333332c0 17.664-14.336 32-32 32l-576 0c-17.664 0-32-14.336-32-32l0 0c0-17.664 14.336-28.8 32-28.8l576 0C902.9973333333334 87.18933333333337 917.3333333333334 98.32533333333333 917.3333333333334 115.98933333333332L917.3333333333334 115.98933333333332zM180.24533333333335 736.2133333333334L165.78133333333335 736.2133333333334C161.81333333333333 728.2773333333333 155.22133333333335 720.1493333333333 145.74933333333334 711.7013333333333S125.33333333333333 696.1493333333333 112.78933333333333 690.1973333333333l0-21.76c6.976 2.56 14.848 6.464 23.68 11.648s15.872 10.304 21.312 15.488l0-143.36 22.528 0L180.30933333333334 736.2133333333334zM117.20533333333333 311.7653333333334c2.496 4.032 5.696 8.128 9.472 12.16s12.48 11.776 25.984 23.04c16.192 13.696 27.776 24.448 34.688 32.256s11.968 15.296 14.912 22.4 4.48 14.336 4.48 21.632c0 14.464-5.12 26.496-15.36 36.224S167.25333333333333 474.1333333333333 149.71733333333333 474.1333333333333c-17.408 0-31.296-4.48-41.6-13.568S91.79733333333333 438.42133333333334 90.19733333333333 421.1413333333333L113.36533333333333 418.7733333333333C113.36533333333333 430.2933333333333 116.69333333333333 439.25333333333333 123.22133333333333 445.7813333333333s15.168 9.728 25.984 9.728c10.24 0 18.56-3.072 24.96-9.216s9.536-13.632 9.536-22.592c0-8.512-3.52-17.472-10.496-27.072S152.78933333333333 374.22933333333333 132.82133333333334 357.9093333333334c-12.8-10.496-22.656-19.776-29.44-27.776S91.66933333333333 314.0053333333334 88.59733333333332 305.7493333333334C86.67733333333332 300.75733333333335 85.78133333333332 295.5733333333334 85.97333333333333 290.1333333333333l121.152 0L207.12533333333334 311.7653333333334 117.20533333333333 311.7653333333334zM104.72533333333332 40.85333333333335c10.624-9.536 24-14.4 40.064-14.4 17.792 0 32.576 5.568 44.224 16.704s17.472 24.704 17.472 40.704c0 11.84-3.008 21.696-9.024 29.568s-14.464 13.056-25.28 15.552c8.32 3.84 14.656 9.024 18.88 15.488s6.4 13.696 6.4 21.632c0 8.32-2.24 16.192-6.656 23.616s-10.88 13.248-19.328 17.536-17.6 6.464-27.648 6.464c-14.528 0-26.624-4.096-36.352-12.416s-16-19.968-18.752-35.072l22.528-3.968c1.664 11.008 5.44 19.264 11.264 24.768s13.12 8.256 21.888 8.256c8.832 0 16.064-2.688 21.632-8.128s8.384-12.224 8.384-20.48c0-10.432-3.84-18.112-11.52-23.104s-16.32-7.488-25.856-7.488c-0.96 0-2.112 0.064-3.648 0.256l-2.496-19.776c6.336 1.664 11.648 2.496 15.872 2.496 10.432 0 19.008-3.392 25.728-10.048s10.112-15.232 10.112-25.536c0-10.816-3.648-19.968-10.944-27.264s-16.256-11.008-26.816-11.008c-8.96 0-16.512 2.816-22.656 8.448S111.57333333333332 68.30933333333337 109.01333333333334 81.10933333333332l-22.528-3.008C88.02133333333333 62.80533333333335 94.10133333333333 50.38933333333341 104.72533333333332 40.85333333333335z"  horiz-adv-x="1024" />

    
    <glyph glyph-name="rightjustified" unicode="&#58894;" d="M896 672C896 654.336 881.664 640 864 640l-704 0C142.336 640 128 654.336 128 672l0 0C128 689.664 142.336 704 160 704l704 0C881.664 704 896 689.664 896 672L896 672zM896 480C896 497.664 881.664 512 864 512l-512 0C334.336 512 320 497.664 320 480l0 0C320 462.336 334.336 448 352 448l512 0C881.664 448 896 462.336 896 480L896 480zM896 288C896 305.664 881.664 320 864 320l-704 0C142.336 320 128 305.664 128 288l0 0C128 270.336 142.336 256 160 256l704 0C881.664 256 896 270.336 896 288L896 288zM896 96c0 17.664-14.336 32-32 32l-512 0C334.336 128 320 113.66399999999999 320 96l0 0C320 78.33600000000001 334.336 64 352 64l512 0C881.664 64 896 78.33600000000001 896 96L896 96z"  horiz-adv-x="1024" />

    
    <glyph glyph-name="script" unicode="&#58895;" d="M663.808 683.84c1.408-0.384 2.752-0.768 4.16-1.152 20.096-5.632 29.504-28.608 19.2-46.528-19.136-33.408-38.464-66.688-57.728-99.968-77.824-134.848-155.648-269.632-233.472-404.544-3.136-5.44-6.848-10.176-12.224-13.44-3.456-2.112-7.296-3.392-11.2-4.352-0.512-0.128-1.024-0.384-1.472-0.64-2.752 0-5.504 0-8.256 0-1.024 0.384-2.048 0.768-3.072 1.024-15.424 3.776-25.6 17.152-24.896 32.896 0.192 4.992 1.6 9.728 4.096 14.144 57.536 99.712 115.136 199.36 172.672 299.072 39.616 68.672 79.296 137.28 118.848 205.952 3.84 6.656 8.832 11.904 15.936 14.848 2.368 0.96 4.864 1.472 7.36 2.176 0.448 0.128 0.832 0.32 1.216 0.512C657.92 683.84 660.864 683.84 663.808 683.84zM64.064 399.36c0.384 0.832 0.896 1.6 1.088 2.432 1.408 6.272 4.48 11.584 8.96 16.064 55.616 55.616 111.232 111.296 166.912 166.848 9.152 9.152 20.416 11.776 32.64 7.808 12.352-3.968 19.712-12.8 21.76-25.6 1.664-10.56-1.408-19.968-9.088-27.648C247.744 500.672 209.088 462.08 170.432 423.424 159.68 412.672 148.928 401.92 138.176 391.104 137.664 390.592 137.152 390.08 136.576 389.44 137.28 388.608 137.92 387.904 138.624 387.2c49.216-49.216 98.432-98.432 147.648-147.648 17.6-17.6 9.984-47.296-14.016-53.76-11.776-3.2-22.4-0.448-31.168 8.192-10.432 10.304-20.736 20.736-31.104 31.104C165.12 270.01599999999996 120.192 314.94399999999996 75.2 359.87199999999996 70.08 364.928 66.432 370.55999999999995 65.024 377.664c-0.128 0.64-0.64 1.28-0.96 1.856C64.064 386.176 64.064 392.768 64.064 399.36zM958.72 377.91999999999996c-0.32-1.088-0.64-2.24-0.96-3.328-1.536-5.12-4.224-9.472-8-13.312-18.816-18.816-37.568-37.696-56.32-56.512-6.336-6.4-12.672-12.736-19.008-19.136-22.272-22.336-44.544-44.672-66.816-67.008-8.192-8.256-16.256-16.64-24.64-24.768-9.344-9.024-20.544-11.584-32.768-7.552-12.352 4.096-19.648 13.056-21.568 26.048-1.536 10.624 1.792 19.712 9.344 27.264 24.32 24.448 48.64 48.832 72.96 73.28 20.928 20.992 41.792 41.984 62.72 62.976 4.416 4.416 8.896 8.704 13.568 13.312-0.832 0.896-1.408 1.536-2.048 2.176-10.88 10.944-21.76 21.824-32.576 32.768-28.096 28.16-56.192 56.384-84.288 84.544-10.304 10.304-20.736 20.544-30.848 31.04-8.64 8.96-11.392 19.776-7.744 31.744 3.648 11.904 11.904 19.456 24.064 22.08 11.392 2.432 21.44-0.768 29.696-9.024 22.4-22.464 44.8-44.992 67.2-67.456 24.896-25.024 49.856-50.048 74.752-75.008 8.192-8.256 16.448-16.448 24.64-24.768 4.224-4.352 7.232-9.408 8.128-15.552 0.064-0.256 0.32-0.448 0.448-0.64C958.72 393.344 958.72 385.6 958.72 377.91999999999996z"  horiz-adv-x="1024" />

    
    <glyph glyph-name="unlink" unicode="&#58896;" d="M150.336 767.6800000000001C133.44 762.304 124.16 744.3199999999999 129.472 727.488 131.2 722.1759999999999 134.208 717.44 138.304 713.664l122.624-122.432C270.208 576.192 289.92 571.52 304.96 580.736 320 590.0799999999999 324.672 609.7280000000001 315.456 624.832 312.832 629.056 309.184 632.64 304.96 635.264L182.336 757.696C175.168 765.44 164.672 769.216 154.304 767.6800000000001 152.96 767.808 151.552 767.808 150.336 767.6800000000001L150.336 767.6800000000001zM406.08 831.424c-13.696-4.48-22.72-17.6-22.016-32L384.064 672c0-17.664 14.336-32 32-32s31.872 14.336 31.872 32L447.936 799.424C448.256 817.088 434.304 831.6800000000001 416.64 832 414.464 832.064 412.16 831.808 410.048 831.424 408.704 831.552 407.296 831.552 406.08 831.424L406.08 831.424zM91.392 511.872C73.728 509.12 61.632 492.544 64.384 474.88 67.136 457.28 83.712 445.248 101.376 448L224 448C241.664 448 256 462.208 256 479.872s-14.336 32-32 32L101.376 511.872c-1.984 0.192-3.968 0.192-6.016 0C94.016 512 92.608 512 91.392 511.872L91.392 511.872zM795.456 320c-17.728-2.752-29.824-14.08-27.072-31.744 2.752-17.6 19.328-35.008 36.992-32.256L928 256c17.664 0 32 19.584 32 37.248S945.664 320 928 320l-122.624 0c-1.984 0.192-3.968 0.192-6.016 0-1.344 0.128-2.688 0.128-4.032 0L795.456 320zM598.272 127.42399999999998c-13.76-4.48-22.72-17.6-22.08-32L576.192-32c0-17.664 14.336-32 32-32S640-49.66399999999999 640-32l0 127.424c0.32 17.6-13.568 32.256-31.232 32.576-2.176 0.064-4.352-0.192-6.592-0.576-1.344 0.128-2.688 0.128-4.032 0L598.272 127.42399999999998zM726.272 191.67999999999995c-16.896-5.376-26.24-23.36-20.864-40.192 1.664-5.312 4.736-10.048 8.832-13.824l122.56-122.432c9.28-15.04 28.928-19.776 44.032-10.496 14.976 9.344 19.712 28.992 10.368 44.032-2.624 4.224-6.144 7.808-10.368 10.432l-122.56 122.432c-7.168 7.744-17.6 11.52-28.032 9.984-1.344 0.128-2.688 0.128-4.032 0L726.272 191.61599999999999zM339.968 28.03200000000004c-49.152 0-98.304 18.688-135.744 56.128-74.816 74.88-74.816 196.608 0 271.488l87.744 87.744c12.48 12.48 32.768 12.48 45.248 0s12.48-32.768 0-45.248L249.408 310.46400000000006c-49.92-49.856-49.92-131.136 0-180.992 49.856-49.856 131.136-49.856 180.992 0l87.744 87.744c12.48 12.48 32.768 12.48 45.248 0s12.48-32.768 0-45.248l-87.744-87.744C438.272 46.72000000000003 389.12 28.03200000000004 339.968 28.03200000000004zM702.144 323.712c-8.192 0-16.384 3.136-22.656 9.344-12.48 12.48-12.48 32.768 0 45.248l87.744 87.744c49.856 49.92 49.856 131.072 0 180.992-49.856 49.856-131.136 49.856-180.992 0L498.496 559.296c-12.48-12.48-32.768-12.48-45.248 0s-12.48 32.768 0 45.248l87.744 87.744c74.88 74.88 196.608 74.88 271.488 0 74.88-74.816 74.88-196.672 0-271.488l-87.744-87.744C718.528 326.784 710.336 323.712 702.144 323.712z"  horiz-adv-x="1024" />

    
    <glyph glyph-name="attachment" unicode="&#58912;" d="M1037.2447126102445 724.8462860298157c-72.88204919815064 72.88204919815064-191.04740000724794 72.88204919815064-263.93064422607426 0l-343.1092403697968-343.1092403697968c-43.72946883201599-43.72946883201599-43.72946883201599-114.62891770362853 0-158.3583865356445 43.72946883201599-43.72946883201599 114.62891770362853-43.72946883201599 158.3583865356445 0l263.93064422607426 263.93064422607426c14.576887693405153 14.576887693405153 14.576887693405153 38.20924115180969 0 52.78612884521484-14.576887693405153 14.576887693405153-38.20924115180969 14.576887693405153-52.78612884521484 0L535.7770857048035 276.16478796958927c-14.576887693405153-14.576887693405153-38.20924115180969-14.576887693405153-52.78612884521484 0-14.576887693405153 14.576887693405153-14.576887693405153 38.20924115180969 0 52.78612884521484l343.1092403697968 343.1092403697968c43.72946883201599 43.72946883201599 114.62891770362853 43.72946883201599 158.3583865356445 0s43.72946883201599-114.62891770362853 0-158.3583865356445L588.5632145500185 117.8064022064209c-72.88204919815064-72.88204919815064-191.04740000724794-72.88204919815064-263.93064422607426 0s-72.88204919815064 191.04740000724794 0 263.93064422607426l0 0L641.3493433952332 698.4526244831086l0 0c14.576887693405153 14.576887693405153 14.576887693405153 38.20924115180969 0 52.78612884521484-14.576887693405153 14.576887693405153-38.20924115180969 14.576887693405153-52.78612884521484 0L271.8464414787293 434.52198025703433l0 0c-102.03582458496095-102.03582458496095-102.03463033676148-267.467077331543 0-369.5029019165039s267.467077331543-102.03582458496095 369.5029019165039 0l395.8953692150116 395.8953692150116C1110.1267618083953 533.7976917743682 1110.1267618083953 651.9630425834656 1037.2447126102445 724.8462860298157z"  horiz-adv-x="1302" />

    
    <glyph glyph-name="picture" unicode="&#58905;" d="M828.0152849825183 167.08104161659264L677.1091094945185 385.4511539389629c-3.1956603638518515 4.615954128592592-6.746393562074073 8.876834209185184-11.007273642666666 12.782640241777779-26.630501413925924 22.724694167703706-67.81901088237038 20.59425473422222-91.96399881481481-6.391320727703703-0.7101468823703704-1.065219716740741-1.7753665991111112-1.7753665991111112-2.485513481481482-2.840586315851852l-200.97151916562962-203.81210548148147-41.54358230281481 69.59437748148147c-3.905807246222222 6.746393562074073-9.942053925925928 12.782640241777779-17.043521536 15.978300605629627-15.623227771259259 7.101467610074074-35.15226157511111 3.5507331982222223-47.224756148148145-10.652200808296296l-147.35544228977776-135.99309459911112c-2.485513481481482-2.130440647111111-4.615954128592592-4.615954128592592-6.391320727703703-7.456540444444444 0-0.3550728343703704-0.3550728343703704-0.7101468823703704-0.3550728343703704-0.7101468823703704L110.76710976474072 613.4082473528889l557.4651667342223 0 0 49.710269629629614L61.056840135111145 663.1185169825186l0-632.385644013037 816.6687156906665 0L877.7255546121482 449.36435757511106l-49.710269629629614 0L828.0152849825183 167.08104161659264zM288.3037866666667 449.36435757511106m-63.91320363614815 0a21.845333333333333 21.845333333333333 0 1 1 127.8264072722963 0 21.845333333333333 21.845333333333333 0 1 1-127.8264072722963 0ZM874.1748214139259 666.3141773463703L874.1748214139259 755.0825157973334 824.4645517842964 755.0825157973334 824.4645517842964 666.3141773463703 728.5947457232594 666.3141773463703 728.5947457232594 616.6039077167407 824.4645517842964 616.6039077167407 824.4645517842964 520.7341028693335 874.1748214139259 520.7341028693335 874.1748214139259 616.6039077167407 962.9431598648887 616.6039077167407 962.9431598648887 666.3141773463703Z"  horiz-adv-x="1024" />

    
    <glyph glyph-name="blockquote" unicode="&#58907;" d="M239.749 598.042v0zM310.56 657.405c-92.562 0-167.597-71.257-167.597-159.156 0-83.268 67.338-151.601 153.122-158.571 3.477-0.282 6.986-0.462 10.522-0.539 5.933-3.714 10.787-10.286 7.889-21.878 0 0-9.21-57.305-134.053-121.773 0 0-62.422-30.699-35.816-67.538 0 0 28.653-44.002 106.424 10.233 0 0 166.114 66.778 222.739 247.26 0 0 35.275 91.487-8.662 174.434-25.364 57.295-85.016 97.528-154.567 97.528zM868.8 561.065c-25.363 57.294-85.014 97.528-154.566 97.528-92.561 0-167.597-71.257-167.597-159.156 0-83.268 67.338-151.601 153.122-158.571 3.477-0.282 6.986-0.462 10.522-0.539 5.933-3.714 10.787-10.286 7.889-21.878 0 0-9.21-57.305-134.053-121.773 0 0-62.422-30.699-35.816-67.538 0 0 28.653-44.002 106.424 10.233 0 0 166.114 66.778 222.739 247.26-0.001 0 35.274 91.488-8.663 174.434z"  horiz-adv-x="1024" />

    
    <glyph glyph-name="fontbackground" unicode="&#58909;" d="M759.121 801.020h-494.24c-81.589 0-147.729-69.389-147.729-154.982v-518.512c0-85.595 66.14-154.982 147.729-154.982h494.24c81.589 0 147.729 69.389 147.729 154.982v518.512c0 85.595-66.14 154.982-147.729 154.982zM853.846 66.665c-104.933 10.085-209.154 9.558-314.269 0.902 0 12.045 0 22.189 0 33.849 18.335 4.146 36.729 8.318 55.13 12.439 1.853 0.415 3.802 0.362 5.645 0.802 25.561 6.121 30.141 13.415 20.775 39.019-16.572 45.328-34.186 90.239-51.856 135.114-1.26 3.201-6.525 6.602-9.959 6.635-55.947 0.533-111.901 0.677-167.849 0.349-3.664-0.020-9.377-3.724-10.639-7.137-15.77-42.653-31.562-85.324-45.927-128.512-8.277-24.886-0.491-38.197 23.969-45.443 9.098-2.694 18.563-4.076 27.908-5.769 8.959-1.622 17.981-2.874 27.668-4.399 2.87-44.611 3.806-36.506-29.787-34.453-31.875 1.95-63.678 6.678-95.539 6.959-23.706 0.207-47.414-5.253-71.196-7.19-13.509-1.103-27.165-0.199-41.414-0.199 0 9.706 0 19.937 0 32.167 14.65 3.107 29.594 6.997 44.754 9.337 28.498 4.394 45.343 20.95 55.631 49.236 67.099 184.463 135.131 368.551 202.499 552.907 3.455 9.451 7.725 12.991 17.223 12.237 13.222-1.052 29.487 4.048 38.99-2.377 9.402-6.356 12.471-23.559 17.551-36.339 66.894-168.275 133.636-336.615 200.478-504.913 4.523-11.388 9.971-22.385 14.204-33.882 7.316-19.871 21.458-30.052 40.765-33.9 10.432-2.079 20.666-5.775 31.163-6.825 10.238-1.022 13.606-6.787 14.021-16.025 0.315-7.094 0.061-14.213 0.061-24.591zM470.97 538.291c-22.699-62.74-45.396-125.482-68.836-190.275 48.78 0 95.854 0 145.756 0-24.656 64.768-48.75 128.063-72.844 191.357-1.359-0.361-2.717-0.722-4.075-1.081z"  horiz-adv-x="1024" />

    


  </font>
</defs>
</svg>
